<svg width="32" height="32" viewBox="0 0 32 32" fill="none" xmlns="http://www.w3.org/2000/svg">
<g clip-path="url(#clip0)">
<path d="M10.2 27L9.35 27.1C8.71477 27.1083 8.08543 26.9773 7.50623 26.7163C6.92703 26.4554 6.41202 26.0707 5.9974 25.5894C5.58279 25.108 5.27863 24.5417 5.10632 23.9302C4.93401 23.3188 4.89772 22.677 5 22.05M9.95 30.9H9.25C7.0706 30.9 4.97972 30.0377 3.43398 28.5013C1.88823 26.9649 1.01321 24.8793 1 22.7V22.25M12 20.05L9.85 22.2" stroke="#202020" stroke-width="2"/>
<path d="M15.9502 22.55C15.8568 22.6483 15.7443 22.7266 15.6197 22.7801C15.4951 22.8337 15.3609 22.8613 15.2252 22.8613C15.0896 22.8613 14.9554 22.8337 14.8307 22.7801C14.7061 22.7266 14.5936 22.6483 14.5002 22.55L9.50022 17.55C9.40188 17.4566 9.32357 17.3441 9.27007 17.2195C9.21656 17.0949 9.18896 16.9606 9.18896 16.825C9.18896 16.6894 9.21656 16.5551 9.27007 16.4305C9.32357 16.3059 9.40188 16.1934 9.50022 16.1L18.1002 7.45C18.1936 7.35166 18.3061 7.27336 18.4307 7.21985C18.5554 7.16634 18.6896 7.13875 18.8252 7.13875C18.9609 7.13875 19.0951 7.16634 19.2197 7.21985C19.3443 7.27336 19.4568 7.35166 19.5502 7.45L24.6002 12.5C24.6986 12.5934 24.7769 12.7059 24.8304 12.8305C24.8839 12.9551 24.9115 13.0894 24.9115 13.225C24.9115 13.3606 24.8839 13.4949 24.8304 13.6195C24.7769 13.7441 24.6986 13.8566 24.6002 13.95L15.9502 22.55Z" stroke="#202020" stroke-width="2"/>
<path d="M17.7501 20.75L25.6501 28.65C25.7435 28.7483 25.856 28.8266 25.9806 28.8801C26.1053 28.9337 26.2395 28.9612 26.3751 28.9612C26.5108 28.9612 26.645 28.9337 26.7696 28.8801C26.8943 28.8266 27.0067 28.7483 27.1001 28.65L30.7001 25.05C30.7985 24.9566 30.8768 24.8441 30.9303 24.7195C30.9838 24.5948 31.0114 24.4606 31.0114 24.325C31.0114 24.1894 30.9838 24.0551 30.9303 23.9305C30.8768 23.8059 30.7985 23.6934 30.7001 23.6L22.8001 15.75M11.3001 14.3L3.40012 6.39999C3.30178 6.30657 3.22348 6.19412 3.16997 6.06949C3.11646 5.94485 3.08887 5.81063 3.08887 5.67499C3.08887 5.53936 3.11646 5.40514 3.16997 5.2805C3.22348 5.15586 3.30178 5.04341 3.40012 4.94999L7.00012 1.34999C7.09354 1.25166 7.20599 1.17335 7.33062 1.11984C7.45526 1.06634 7.58948 1.03874 7.72512 1.03874C7.86076 1.03874 7.99498 1.06634 8.11961 1.11984C8.24425 1.17335 8.3567 1.25166 8.45012 1.34999L16.3001 9.24999L11.3001 14.3Z" stroke="#202020" stroke-width="2"/>
</g>
<defs>
<clipPath id="clip0">
<rect width="32" height="32" fill="white"/>
</clipPath>
</defs>
</svg>
