<svg width="32" height="32" viewBox="0 0 32 32" fill="none" xmlns="http://www.w3.org/2000/svg">
<path d="M5.5 22L1.5 26L5.5 30M26.5 10L30.5 6L26.5 2" stroke="#202020" stroke-width="2" stroke-miterlimit="10" stroke-linejoin="round"/>
<path d="M30.4 6H6C5.34339 6 4.69321 6.12933 4.08658 6.3806C3.47995 6.63188 2.92876 7.00017 2.46447 7.46447C1.52678 8.40215 1 9.67392 1 11C1 12.3261 1.52678 13.5979 2.46447 14.5355C2.92876 14.9998 3.47995 15.3681 4.08658 15.6194C4.69321 15.8707 5.34339 16 6 16H26C27.3261 16 28.5979 16.5268 29.5355 17.4645C30.4732 18.4021 31 19.6739 31 21C31 22.3261 30.4732 23.5979 29.5355 24.5355C28.5979 25.4732 27.3261 26 26 26H1.5" stroke="#202020" stroke-width="2" stroke-miterlimit="10" stroke-linejoin="round"/>
</svg>
