<svg width="32" height="32" viewBox="0 0 32 32" fill="none" xmlns="http://www.w3.org/2000/svg">
<path d="M8 9.00409L5.3935 6.39759M31 17.0041H27H31ZM16 2.00409V6.00409V2.00409ZM5 17.0041H1H5Z" stroke="#202020" stroke-width="2" stroke-miterlimit="10"/>
<path d="M24.4085 9.27609C24.4656 9.19665 24.4975 9.10188 24.5 9.00409C24.5001 8.91682 24.4773 8.83106 24.4339 8.75533C24.3906 8.6796 24.3282 8.61653 24.2529 8.5724C24.1776 8.52826 24.0921 8.5046 24.0048 8.50375C23.9176 8.50291 23.8316 8.52492 23.7555 8.56759L14.3815 14.4781C14.008 14.7171 13.6921 15.036 13.4566 15.4118C13.2211 15.7875 13.0718 16.2108 13.0196 16.6512C12.9673 17.0916 13.0134 17.5381 13.1544 17.9585C13.2954 18.379 13.528 18.7629 13.8352 19.0827C14.1424 19.4025 14.5168 19.6502 14.9312 19.8079C15.3457 19.9657 15.79 20.0296 16.2321 19.995C16.6742 19.9604 17.1032 19.8282 17.4881 19.6079C17.873 19.3876 18.2042 19.0848 18.458 18.7211L24.4085 9.27609Z" stroke="#202020" stroke-width="2" stroke-miterlimit="10" stroke-linejoin="round"/>
<path d="M3.314 25.0041C1.88234 22.735 1.08549 20.1234 1.0065 17.4416C0.927512 14.7598 1.56928 12.1059 2.86491 9.75643C4.16054 7.40701 6.0626 5.44809 8.37286 4.08386C10.6831 2.71962 13.317 2 16 2C18.683 2 21.3169 2.71962 23.6271 4.08386C25.9374 5.44809 27.8395 7.40701 29.1351 9.75643C30.4307 12.1059 31.0725 14.7598 30.9935 17.4416C30.9145 20.1234 30.1177 22.735 28.686 25.0041H3.314Z" stroke="#202020" stroke-width="2" stroke-miterlimit="10" stroke-linejoin="round"/>
</svg>
