<svg width="34" height="34" viewBox="0 0 34 34" fill="none" xmlns="http://www.w3.org/2000/svg">
<g filter="url(#filter0_d)">
<path d="M5.6 2C3.4 2 2 3.8 2 6H9M28 24H13C14.0609 24 15.0783 24.4214 15.8284 25.1716C16.5786 25.9217 17 26.9391 17 28C17 29.0609 16.5786 30.0783 15.8284 30.8284C15.0783 31.5786 14.0609 32 13 32H28C29.0609 32 30.0783 31.5786 30.8284 30.8284C31.5786 30.0783 32 29.0609 32 28C32 26.9391 31.5786 25.9217 30.8284 25.1716C30.0783 24.4214 29.0609 24 28 24Z" stroke="#4EA32E" stroke-width="2"/>
<path d="M14 18H21M14 8H21H14ZM14 13H21H14Z" stroke="#4EA32E" stroke-width="2"/>
<path d="M26.0001 24V6C26.0001 4.93913 25.5787 3.92172 24.8285 3.17157C24.0784 2.42143 23.061 2 22.0001 2H5.6001C7.8001 2 9.0001 3.8 9.0001 6V28C9.0001 29.0609 9.42152 30.0783 10.1717 30.8284C10.9218 31.5786 11.9392 32 13.0001 32" stroke="#4EA32E" stroke-width="2"/>
</g>
<defs>
<filter id="filter0_d" x="0" y="0" width="34" height="34" filterUnits="userSpaceOnUse" color-interpolation-filters="sRGB">
<feFlood flood-opacity="0" result="BackgroundImageFix"/>
<feColorMatrix in="SourceAlpha" type="matrix" values="0 0 0 0 0 0 0 0 0 0 0 0 0 0 0 0 0 0 127 0"/>
<feOffset/>
<feGaussianBlur stdDeviation="0.5"/>
<feColorMatrix type="matrix" values="0 0 0 0 0.482353 0 0 0 0 0.984314 0 0 0 0 0.298039 0 0 0 1 0"/>
<feBlend mode="normal" in2="BackgroundImageFix" result="effect1_dropShadow"/>
<feBlend mode="normal" in="SourceGraphic" in2="effect1_dropShadow" result="shape"/>
</filter>
</defs>
</svg>
