<svg width="32" height="32" viewBox="0 0 32 32" fill="none" xmlns="http://www.w3.org/2000/svg">
<path d="M15.9998 2L1.22234 17.285C1.20438 17.3023 1.19201 17.3246 1.18682 17.349C1.18163 17.3734 1.18385 17.3988 1.19321 17.4219C1.20256 17.445 1.21862 17.4648 1.23932 17.4787C1.26001 17.4926 1.2844 17.5001 1.30934 17.5H4.99984V31H12.4998V22.5H19.4998V31H26.9998V17.5H30.6908C30.7158 17.5001 30.7402 17.4926 30.7609 17.4787C30.7815 17.4648 30.7976 17.445 30.807 17.4219C30.8163 17.3988 30.8185 17.3734 30.8134 17.349C30.8082 17.3246 30.7958 17.3023 30.7778 17.285L15.9998 2Z" stroke="black" stroke-width="2" stroke-miterlimit="10" stroke-linecap="round"/>
</svg>
