<svg width="32" height="32" viewBox="0 0 32 32" fill="none" xmlns="http://www.w3.org/2000/svg">
<path d="M13.7002 6.10001C14.1502 4.45001 15.3002 2.40001 18.2002 2.40001C18.2002 2.40001 26.2002 -0.149995 26.2002 8.00001C26.2002 14.85 27.7502 15.6 29.4002 17.25C27.3024 17.7429 25.1551 17.9945 23.0002 18V18.8C23.0002 19.6 22.8502 21.2 26.8502 22C30.8502 22.8 31.0002 26 31.0002 26H20.5002" stroke="#202020" stroke-width="2" stroke-miterlimit="10" stroke-linecap="round" stroke-linejoin="round"/>
<path d="M19.05 25.6C15.05 25.05 15.05 23.6 15.05 22.8V22.35C16.0686 21.4067 16.797 20.1926 17.15 18.85C18.35 18.85 18.65 16.3 18.65 15.95C18.65 15.6 18.55 14.15 18 14C20 7.00001 14 4.00001 8.8 7.60001C6.6 7.60001 5.9 10.8 6.7 14C6.15 14 6.05 15.5 6.05 15.9C6.05 16.3 6.35 18.8 7.55 18.8C7.95 20.25 9.05 21.45 10 22.3V22.8C10 23.6 9.7 25.1 5.65 25.6C1.6 26.1 1 30 1 30H23C23 30 23.05 26.15 19.05 25.6Z" stroke="#202020" stroke-width="2" stroke-miterlimit="10" stroke-linecap="round" stroke-linejoin="round"/>
</svg>
