<svg width="32" height="32" viewBox="0 0 32 32" fill="none" xmlns="http://www.w3.org/2000/svg">
<path d="M16 31C24.2843 31 31 24.2843 31 16C31 7.71573 24.2843 1 16 1C7.71573 1 1 7.71573 1 16C1 24.2843 7.71573 31 16 31Z" stroke="#202020" stroke-width="2" stroke-linecap="round" stroke-linejoin="round"/>
<path d="M12 24V8H18" stroke="#202020" stroke-width="2" stroke-linecap="round"/>
<path d="M18.1567 8C19.4413 8 20.6732 8.52678 21.5814 9.46447C22.4897 10.4021 23 11.6739 23 13C23 14.3261 22.4897 15.5979 21.5814 16.5355C20.6732 17.4732 19.4413 18 18.1567 18H11" stroke="#202020" stroke-width="2" stroke-linecap="round"/>
<path d="M11 21H19" stroke="#202020" stroke-width="2" stroke-linecap="round"/>
</svg>
