<svg width="32" height="32" viewBox="0 0 32 32" fill="none" xmlns="http://www.w3.org/2000/svg">
<path d="M26.5 11L30.5 7L26.5 3M26.5 29L30.5 25L26.5 21" stroke="#202020" stroke-width="2" stroke-miterlimit="10" stroke-linecap="round"/>
<path d="M11.5 16C12.3899 15.9943 13.2659 15.7785 14.0565 15.3701C14.8472 14.9617 15.5302 14.3724 16.05 13.65L19.45 9.00001C19.9668 8.37354 20.6159 7.8693 21.3508 7.5235C22.0856 7.1777 22.8879 6.99892 23.7 7H30.5M11.5 16H1M11.5 16C12.3976 16.0018 13.2821 16.2157 14.0815 16.624C14.8808 17.0324 15.5724 17.6238 16.1 18.35M16.05 18.35L19.45 23C19.9668 23.6265 20.6159 24.1307 21.3508 24.4765C22.0856 24.8223 22.8879 25.0011 23.7 25H30.5" stroke="#202020" stroke-width="2" stroke-miterlimit="10" stroke-linecap="round" stroke-linejoin="round"/>
</svg>
