<svg width="32" height="32" viewBox="0 0 32 32" fill="none" xmlns="http://www.w3.org/2000/svg">
<path d="M11.6501 27H6.8501L10.3001 23C10.6636 22.5309 10.8405 21.9438 10.7966 21.352C10.7526 20.7602 10.4909 20.2056 10.0621 19.7954C9.63324 19.3852 9.06761 19.1484 8.47442 19.1308C7.88123 19.1132 7.30254 19.316 6.8501 19.7M16.0001 12V5L13.9501 6.05M21.0001 19H25.0001L23.0001 22C23.0001 22 26.0001 22 26.0001 24.55C26.0001 27.1 22.4001 27.65 21.0001 26M14.0001 12H18.0001" stroke="#202020" stroke-width="2" stroke-miterlimit="10"/>
<path d="M16 16H31V31H16M1 16H16V31H1V16ZM8 1H23V16H8V1Z" stroke="#202020" stroke-width="2" stroke-miterlimit="10"/>
</svg>
